<svg width="90" height="66" viewBox="0 0 90 66" fill="none" xmlns="http://www.w3.org/2000/svg">
<path d="M17.8956 52.128L20.8916 57H19.4496L17.1116 53.192L14.8856 57H13.4716L16.4536 52.128L13.4576 47.242H14.8856L17.2376 51.064L19.4776 47.242H20.9056L17.8956 52.128ZM29.7129 47.242L26.5349 53.318V57H25.2609V53.318L22.0689 47.242H23.4829L25.8909 52.184L28.2989 47.242H29.7129ZM32.4147 55.894H37.1747V57H30.9027V55.992L35.6347 48.348H30.9587V47.242H37.1467V48.25L32.4147 55.894ZM48.0894 51.974C48.444 52.03 48.766 52.1747 49.0554 52.408C49.354 52.6413 49.5874 52.9307 49.7554 53.276C49.9327 53.6213 50.0214 53.99 50.0214 54.382C50.0214 54.8767 49.8954 55.3247 49.6434 55.726C49.3914 56.118 49.0227 56.4307 48.5374 56.664C48.0614 56.888 47.4967 57 46.8434 57H43.2034V47.242H46.7034C47.366 47.242 47.9307 47.354 48.3974 47.578C48.864 47.7927 49.214 48.0867 49.4474 48.46C49.6807 48.8333 49.7974 49.2533 49.7974 49.72C49.7974 50.2987 49.6387 50.7793 49.3214 51.162C49.0134 51.5353 48.6027 51.806 48.0894 51.974ZM44.4774 51.456H46.6194C47.2167 51.456 47.6787 51.316 48.0054 51.036C48.332 50.756 48.4954 50.3687 48.4954 49.874C48.4954 49.3793 48.332 48.992 48.0054 48.712C47.6787 48.432 47.2074 48.292 46.5914 48.292H44.4774V51.456ZM46.7314 55.95C47.366 55.95 47.8607 55.8007 48.2154 55.502C48.57 55.2033 48.7474 54.788 48.7474 54.256C48.7474 53.7147 48.5607 53.29 48.1874 52.982C47.814 52.6647 47.3147 52.506 46.6894 52.506H44.4774V55.95H46.7314ZM51.5933 53.136C51.5933 52.352 51.752 51.666 52.0693 51.078C52.3866 50.4807 52.8206 50.0187 53.3713 49.692C53.9313 49.3653 54.552 49.202 55.2333 49.202C55.9053 49.202 56.4886 49.3467 56.9833 49.636C57.478 49.9253 57.8466 50.2893 58.0893 50.728V49.328H59.3773V57H58.0893V55.572C57.8373 56.02 57.4593 56.3933 56.9553 56.692C56.4606 56.9813 55.882 57.126 55.2193 57.126C54.538 57.126 53.922 56.958 53.3713 56.622C52.8206 56.286 52.3866 55.8147 52.0693 55.208C51.752 54.6013 51.5933 53.9107 51.5933 53.136ZM58.0893 53.15C58.0893 52.5713 57.9726 52.0673 57.7393 51.638C57.506 51.2087 57.1886 50.882 56.7873 50.658C56.3953 50.4247 55.9613 50.308 55.4853 50.308C55.0093 50.308 54.5753 50.42 54.1833 50.644C53.7913 50.868 53.4786 51.1947 53.2453 51.624C53.012 52.0533 52.8953 52.5573 52.8953 53.136C52.8953 53.724 53.012 54.2373 53.2453 54.676C53.4786 55.1053 53.7913 55.4367 54.1833 55.67C54.5753 55.894 55.0093 56.006 55.4853 56.006C55.9613 56.006 56.3953 55.894 56.7873 55.67C57.1886 55.4367 57.506 55.1053 57.7393 54.676C57.9726 54.2373 58.0893 53.7287 58.0893 53.15ZM65.5482 49.188C66.4816 49.188 67.2376 49.4727 67.8162 50.042C68.3949 50.602 68.6842 51.414 68.6842 52.478V57H67.4242V52.66C67.4242 51.8947 67.2329 51.3113 66.8502 50.91C66.4676 50.4993 65.9449 50.294 65.2822 50.294C64.6102 50.294 64.0736 50.504 63.6722 50.924C63.2802 51.344 63.0842 51.9553 63.0842 52.758V57H61.8102V49.328H63.0842V50.42C63.3362 50.028 63.6769 49.7247 64.1062 49.51C64.5449 49.2953 65.0256 49.188 65.5482 49.188ZM75.3293 57L72.3193 53.612V57H71.0453V46.64H72.3193V52.73L75.2733 49.328H77.0513L73.4393 53.15L77.0653 57H75.3293Z" fill="black"/>
<path d="M42.9646 0L18 43H29.4837L42.9646 19.7876L59.9405 43H71.4242L42.9646 0Z" fill="url(#paint0_linear_606_3)"/>
<path d="M43.0833 26.0606L33.3106 42.6742H56.1136L43.0833 26.0606Z" fill="url(#paint1_linear_606_3)"/>
<defs>
<linearGradient id="paint0_linear_606_3" x1="46.0152" y1="47.5606" x2="44.7121" y2="15.3106" gradientUnits="userSpaceOnUse">
<stop stop-color="#7266FA"/>
<stop offset="1" stop-color="#B659FC"/>
</linearGradient>
<linearGradient id="paint1_linear_606_3" x1="42.1061" y1="30.947" x2="45.6894" y2="50.4924" gradientUnits="userSpaceOnUse">
<stop stop-color="#B659FC"/>
<stop offset="1" stop-color="#7266FA"/>
</linearGradient>
</defs>
</svg>
